<svg xmlns="http://www.w3.org/2000/svg" width="851.034" height="591.91278" viewBox="0 0 851.034 591.91278" xmlns:xlink="http://www.w3.org/1999/xlink"><g><g><polygon points="112.91199 566.87683 122.99721 567.11483 128.61888 521.80573 113.73564 521.45353 112.91199 566.87683" fill="#ffb6b6"/><path d="M147.51309,587.91763h0c0,1.70372-1.20906,3.08488-2.70053,3.08488h-20.0183s-1.96996-7.91874-10.00182-11.32661l-.55434,11.32661h-10.32674l1.25119-18.21268s-2.76245-9.74384,2.97458-14.72462c5.73709-4.98078,1.09026-4.28742,1.09026-4.28742l2.25687-11.27227,15.60482,1.83503,.11474,17.69482,7.5729,17.56376,11.10762,5.48698c.98863,.48835,1.62862,1.60109,1.62862,2.83147l.00012,.00003Z" fill="#2f2e41"/></g><g><polygon points="179.23518 567.03341 189.32039 567.2714 194.94206 521.96231 180.05882 521.6101 179.23518 567.03341" fill="#ffb6b6"/><path d="M213.83627,588.07421h0c0,1.70372-1.20906,3.08488-2.70053,3.08488h-20.0183s-1.96996-7.91874-10.00182-11.32661l-.55434,11.32661h-10.32674l1.25119-18.21268s-2.76245-9.74384,2.97458-14.72462c5.73709-4.98078,1.09026-4.28742,1.09026-4.28742l2.25687-11.27227,15.60482,1.83503,.11474,17.69482,7.5729,17.56376,11.10762,5.48698c.98863,.48835,1.62862,1.60109,1.62862,2.83147l.00012,.00003Z" fill="#2f2e41"/></g><path d="M165.57999,305l12.04104,29.39497,22.50251,111.72298-1.57912,90.16661-20.5286-3.15825-6.31649-83.85011-35.64529-80.93007-4.62236,167.78186-22.10773,.78956-19.53703-197.03774c-1.18713-15.05497,6.75861-30.0683,15.19442-42.59421v-.00002l60.59865,7.71443Z" fill="#2f2e41"/></g><path id="b-27" d="M681.57367,360.80516h0c-1.07874-2.59158-2.76236-4.8872-4.91008-6.69476l-9.92603-27.61722-13.00638,5.11013,11.47207,27.46882c-.15415,2.80301,.36519,5.60221,1.51461,8.16339,2.78811,6.44733,8.3739,10.23481,12.47578,8.46165s5.16801-8.43823,2.38069-14.88476l-.00067-.00724Z" fill="#ffb6b6"/><g><path id="c-28" d="M514.5093,140.51913h0V51.51363C514.5093,23.06344,491.44586,0,462.99567,0h-188.57411c-28.45019-.00047-51.51403,23.06261-51.51449,51.51281v488.29095c0,28.45019,23.06343,51.51363,51.51363,51.51363h188.57249c28.45019,0,51.51363-23.06343,51.51363-51.51363V203.87473h.00025c1.79196,0,3.24464-1.45263,3.24472-3.24458l.00223-56.86618c.00008-1.79206-1.45266-3.24484-3.24472-3.24484Z" fill="#3f3d56"/><path id="d-29" d="M504.8356,47.23048v495.18909c-30.10517-1.84921-14.79231,37.81767-39.05604,39.06436h-192.44296c-21.57881,.00325-39.07541-17.48553-39.08183-39.06436V47.23048c.00642-21.57802,17.50214-39.06627,39.08016-39.06351h14.19234c-3.86489,9.50451,27.32772,12.59678,29.71897,12.59981h98.55893c10.26027-.01299,35.01379-10.38471,34.11303-12.59981h15.85387c21.56974,.00369,39.05568,17.4863,39.0635,39.05603l.00005,.00748h-.00003Z" fill="#fff"/><g><path d="M221.39042,151.42124c-1.3724,0-2.48844,1.11603-2.48844,2.48844v19.90748c0,1.3724,1.11603,2.48844,2.48844,2.48844s2.48844-1.11603,2.48844-2.48844v-19.90748c0-1.3724-1.11603-2.48844-2.48844-2.48844Z" fill="#3f3d56"/><path d="M221.39042,211.14368c-1.3724,0-2.48844,1.11603-2.48844,2.48844v38.57074c0,1.3724,1.11603,2.48843,2.48844,2.48843s2.48844-1.11603,2.48844-2.48843v-38.57074c0-1.3724-1.11603-2.48844-2.48844-2.48844Z" fill="#3f3d56"/><path d="M221.39042,265.88924c-1.3724,0-2.48844,1.11603-2.48844,2.48843v38.57074c0,1.3724,1.11603,2.48843,2.48844,2.48843s2.48844-1.11603,2.48844-2.48843v-38.57074c0-1.3724-1.11603-2.48843-2.48844-2.48843Z" fill="#3f3d56"/></g></g><g><polygon points="761.2688 581.31562 746.95552 581.31423 740.1466 526.10521 761.27167 526.10669 761.2688 581.31562" fill="#ffb6b6"/><path d="M712.22968,580.99093h0c-.44567,.75058-.68082,3.17313-.68082,4.046h0c0,2.68296,2.17494,4.85799,4.85799,4.85799h44.32658c1.8303,0,3.31414-1.48375,3.31414-3.31414v-1.84546s2.19279-5.54656-2.32178-12.383c0,0-5.61101,5.35303-13.9953-3.03126l-2.47245-4.47904-17.89716,13.08908-9.92012,1.22107c-2.17032,.26712-4.09451-.04146-5.2109,1.83875h-.00017Z" fill="#2f2e41"/></g><g><polygon points="721.2688 581.31562 706.95552 581.31423 700.1466 526.10521 717.6666 528.28687 721.2688 581.31562" fill="#ffb6b6"/><path d="M672.22968,580.99093h0c-.44567,.75058-.68082,3.17313-.68082,4.046h0c0,2.68296,2.17494,4.85799,4.85799,4.85799h44.32658c1.8303,0,3.31414-1.48375,3.31414-3.31414v-1.84546s2.19279-5.54656-2.32178-12.383c0,0-5.61101,5.35303-13.9953-3.03126l-2.47245-4.47904-17.89716,13.08908-9.92012,1.22107c-2.17032,.26712-4.09451-.04146-5.2109,1.83875h-.00017Z" fill="#2f2e41"/></g><rect id="e" y="590.22978" width="851.034" height="1.683" fill="#e6e6e6"/><path id="f-30" d="M671.08498,371.50479l7.6111,91.99721,24.88392,99.498,19,4-9.1212-99.38689,7.07519-81.97831-49.449-14.13Z" fill="#2f2e41"/><path id="g-31" d="M751.82498,314.9848l-72.666,1.009-8.07401,55.508,49.44899,23.21301,23.04602,168.28519,19,4,5.39297-210.63721-16.14798-41.37799Z" fill="#2f2e41"/><path id="h-32" d="M698.03397,184.4868l-12.82,16.453,6.056,126.15501,47.434-1.009,8.07401-110.007-10.092-28.259-3.65199-6.33299-4.36738-8.19995-28,2-2.63263,9.19993Z" fill="#e6e6e6"/><path id="i-33" d="M682.13197,248.3728l-11.10001,42.388,5.10001,42.388-18.16699,24.224-10.14801-76.69998s12.11099-62.573,13.12-69.638,3.02802-8.07401,3.02802-8.07401l8.07401,1.009,10.09299,44.40298Z" fill="#2f2e41"/><path id="j-34" d="M679.10298,262.50378l2.56362,25.78308-3.14961,29.66952-3.93701,8.04361-9,32s-9.185,13.99399,11,15,86.34597-5.54117,86.34597-5.54117c0,0,8.2489-.20342,4.65403-17.45883-1.57447-7.55745-2.06299-24.04361-2.06299-24.04361l-7.63702-28.13556,2.01801-26.23999,14.13001-68.629c-12.54883-9.86151-26.60425-16.91971-41.88403-21.70001l-13.56397,51.74817-19.74402-48.72018-7.56902,5.551c-10.20923,2.67712-19.19403,6.79395-26.29999,13.12l14.13602,59.55298Z" fill="#2f2e41"/><path id="k-35" d="M235.94301,233.4698c-1.98782,.79332-3.75677,2.05104-5.159,3.668l-21.17001,7.257,3.74799,9.972,21.07101-8.435c2.13528,.14932,4.27527-.21483,6.241-1.062,4.94699-2.05299,7.89999-6.269,6.59201-9.41699s-6.37601-4.036-11.323-1.983h0v-.00002Z" fill="#ffb6b6"/><path id="l-36" d="M439.54601,201.29082h-142.43501c-9.76314-.01102-17.67499-7.92285-17.686-17.686v-61.22501c.01102-9.76314,7.92287-17.67499,17.686-17.686,45.45-12.592,93.118-11.412,142.43498,0,9.76276,.01155,17.67401,7.92325,17.68503,17.686v61.22501c-.01102,9.76276-7.92224,17.67444-17.685,17.686Z" fill="#f2f2f2"/><g id="m" transform="translate(0 -32.533)"><path id="n-37" d="M454.05699,298.76781h-171.45599c-1.75281-.00165-3.17334-1.42218-3.17499-3.17499v-42.53c.0022-1.75259,1.42242-3.17279,3.17499-3.17499h171.45599c1.75256,.0022,3.17279,1.42239,3.17499,3.17499v42.53101c-.0022,1.75259-1.42242,3.17279-3.17499,3.17499v-.00101Zm-171.45599-47.61002c-1.05164,.0011-1.90393,.85333-1.90503,1.905v42.53101c.0011,1.05167,.85339,1.9039,1.90503,1.905h171.45599c1.05164-.0011,1.90393-.85333,1.90503-1.905v-42.53101c-.0011-1.05167-.85339-1.9039-1.90503-1.905h-171.45599Z" fill="#e6e6e6"/><path id="o-38" d="M335.62498,265.4338c-1.22748,.02594-2.20148,1.04202-2.17554,2.26947,.02521,1.19095,.98462,2.15036,2.17554,2.17554h104.77802c1.22693,.04694,2.25952-.90961,2.30652-2.13651,.04694-1.2269-.90961-2.25955-2.13654-2.30649h-104.948v-.00201Z" fill="#e6e6e6"/><path id="p-39" d="M335.62498,278.77279c-1.22748,.02594-2.20148,1.04202-2.17554,2.26947,.02521,1.19095,.98462,2.15036,2.17554,2.17554h104.77802c1.22693,.04694,2.25952-.90961,2.30652-2.13651,.04694-1.2269-.90961-2.25955-2.13654-2.30649h-104.948v-.00201Z" fill="#e6e6e6"/><circle id="q" cx="306.19201" cy="274.32881" r="8.891" fill="#e6e6e6"/></g><g id="r" transform="translate(0 0.223)"><path id="s-40" d="M454.05699,473.76679h-171.45599c-1.75281-.00165-3.17334-1.42218-3.17499-3.17499v-42.52997c.0022-1.75256,1.42242-3.17279,3.17499-3.17499h171.45599c1.75256,.0022,3.17279,1.42242,3.17499,3.17499v42.53101c-.0022,1.75256-1.42242,3.17279-3.17499,3.17499v-.00104Zm-171.45599-47.60999c-1.0517,.0011-1.90393,.85333-1.90503,1.90503v42.53101c.0011,1.0517,.85333,1.90393,1.90503,1.90503l151.97899-1.49787c1.0517-.0011,16.9989-5.9483,17-7l4.38203-35.93817c-.0011-1.0517-.85333-1.90393-1.90503-1.90503h-171.45599Z" fill="#e6e6e6"/><path id="t-41" d="M335.62498,446.7728c-1.22748-.02594-2.24353,.94806-2.26947,2.17554s.94806,2.24353,2.17554,2.26947c.03131,.00067,.06262,.00067,.09393,0h104.77802c1.22693,.04694,2.25952-.90961,2.30652-2.13647,.04694-1.22693-.90961-2.25958-2.13654-2.30652h-104.948v-.00201Z" fill="#e6e6e6"/><circle id="u" cx="306.19201" cy="449.32779" r="8.891" fill="#e6e6e6"/></g><g id="v" transform="translate(0 0.223)"><path id="w-42" d="M454.05699,385.76679h-171.45599c-1.75281-.00165-3.17334-1.42218-3.17499-3.17499v-42.52997c.0022-1.75256,1.42242-3.17279,3.17499-3.17499h171.45599c1.75256,.0022,3.17279,1.42242,3.17499,3.17499v42.53101c-.0022,1.75256-1.42242,3.17279-3.17499,3.17499v-.00104Zm-171.45599-47.60999c-1.0517,.0011-1.90393,.85333-1.90503,1.90503v42.53101c.0011,1.0517,.85333,1.90393,1.90503,1.90503l151.97899-1.49787c1.0517-.0011,16.9989-5.9483,17-7l4.38203-35.93817c-.0011-1.0517-.85333-1.90393-1.90503-1.90503h-171.45599Z" fill="#e6e6e6"/><path id="x-43" d="M335.62498,358.7728c-1.22748-.02594-2.24353,.94806-2.26947,2.17554s.94806,2.24353,2.17554,2.26947c.03131,.00067,.06262,.00067,.09393,0h104.77802c1.22693,.04694,2.25952-.90961,2.30652-2.13647,.04694-1.22693-.90961-2.25958-2.13654-2.30652h-104.948v-.00201Z" fill="#e6e6e6"/><circle id="y" cx="306.19201" cy="361.32779" r="8.891" fill="#e6e6e6"/></g><g><circle cx="712.16969" cy="147.07086" r="25.04932" fill="#ffb6b6"/><path d="M730.56707,167.65244c1.37977,.23525,2.99957-3.10915,4.54743-6.3664,3.24032-6.81859,5.30015-11.15319,5.45691-17.28022,.13361-5.22199-1.31716-3.85144-2.72846-15.46125-.46546-3.82923-7.00738-3.82186-8.33886-5.64016-2.24907-3.0714,1.20169-4.33809-4.39394-6.18315-10.48106-3.45587-15.22058,1.9127-21.8768,2.37521-.1682,.0117-3.46797,3.23869-5.31087,3.40556-3.2288,.29236-7.8867-.21057-9.97491-5.12995-1.9525-4.59969-3.24585,8.84154-1.50071,10.50497,1.48169,1.4123,4.03762,4.95715,4.10284,5.21494,.07383,.29176-6.07743-6.52229-7.10427-3.71423-.73901,2.02092,1.58723,12.41829,3.46632,12.80909,1.57139,.32674,5.41452-4.85272,4.54743-2.72846-2.01091,4.92648,10.08072,8.06991,24.55611-1.81897,.51331-.35072,.02842,.20861,1.81897,4.54743,2.25823,5.47223,2.76787,5.76866,2.72846,7.27588-.08532,3.26269-2.53506,4.22336-1.81897,6.3664,.57997,1.73571,2.84647,3.07939,4.54743,2.72846,1.91945-.39612,2.24851-2.77064,3.63794-2.72846,1.19015,.03619,2.60261,1.82874,2.72846,3.63794,.26506,3.81147-5.37759,4.85973-6.3664,10.00434-.55805,2.90343,6.00791-2.03513,7.27588-1.81897Z" fill="#2f2e41"/></g><g><path id="a`-44" d="M787.25488,367.87911h0c.10841-2.80504-.45643-5.59527-1.64735-8.13726l2.5799-29.23322-13.95017-.81976-1.11429,29.74732c-1.3162,2.47956-2.0195,5.2383-2.05099,8.04539-.17491,7.02218,3.30582,12.8041,7.77314,12.916s8.23204-5.4905,8.40733-12.51162l.00243-.00685Z" fill="#ffb6b6"/><path id="aa-45" d="M757.57999,250l11,34,3.15793,69.44072,18.41354-.37612,1.42853-76.0646s-9.17682-56.20539-12.24967-68.83829c-3.07285-12.63289-31.40655-7.95124-31.40655-7.95124l9.65622,49.78953Z" fill="#2f2e41"/></g><path d="M301.32032,161.35631c5.20201,1.72715,10.65575,3.47564,16.20849,3.18058,2.52699-.13428,4.95785-.73685,7.24996-1.80871,2.35101-1.0994,4.49917-2.59225,6.87885-3.6338,8.74551-3.82774,17.41872,2.71127,25.57476,5.16556,4.06939,1.22455,8.34873,1.51756,12.32909-.18796,4.39764-1.88432,7.71496-5.48019,11.33585-8.4825,8.11837-6.73145,18.71101-10.3606,29.24765-10.08623,11.55887,.30098,22.74683,5.4064,30.70656,13.75731,.66737,.70016,1.72695-.36163,1.06066-1.06066-6.95631-7.29818-16.32962-12.21854-26.31122-13.70955-10.00312-1.49423-20.38734,.50233-29.18266,5.48373-4.45081,2.5208-8.02052,5.97134-11.94138,9.19156-3.8181,3.13582-8.0633,5.1567-13.09687,4.49024-8.67207-1.1482-16.13149-7.83051-25.1254-7.22467-5.74434,.38695-9.84679,4.70876-15.25202,6.08656-6.4485,1.64373-13.18832-.58414-19.28356-2.60786-.91824-.30487-1.31197,1.14322-.39876,1.44642h0Z" fill="#3f3d56"/><circle id="ab" cx="317.60201" cy="163.7928" r="5.556" fill="#d89326"/><circle id="ac" cx="365.56603" cy="164.0388" r="5.556" fill="#d89326"/><circle id="ad" cx="414.27599" cy="145.19179" r="5.556" fill="#d89326"/><path id="ae-46" d="M139.87001,186.30481c1.09497-18.581,1.612-34.906-3.81897-28.017,.09448-16.49427-13.20013-29.94211-29.6944-30.03661s-31.77665,6.7488-30.03662,29.69441c-.00004,.00713-.01078,.0561-.03089,.14169-1.72151,7.32842-1.75294,14.95238-.01897,22.27786l.04986,.21065c.00385,2.21307,1.79694,4.00616,4.01001,4.01l55.52802,5.729c2.21381-.00277,4.00812-1.79617,4.01196-4.01Z" fill="#2f2e41"/><circle id="af" cx="113.556" cy="162.35381" r="21.897" fill="#ffb7b7"/><path id="ag-47" d="M143.11702,160.07381c.29999-15.66-9.92102-29.15-23.625-23.625h-4.45801c-13.04181,.01433-33.45402,3.55119-27.45402,22.55119,3.93701,4.95639,13.00851,19.6778,12.93701,28.95639,4.04675-3.47162,5.16874-13.50617,.31498-27.43659l3.21302-9,.64301,9h4.86902c4.19287,.0885,8.37011-.53882,12.35198-1.85498,5.96979-6.38275,7.97632,2.50888,15.67099,6.33517l5.53904-4.92619h-.00201Z" fill="#2f2e41"/><path id="ah-48" d="M91.57999,322c10.77649,29.59589,38.08661-37.71313,75-13-.39001-2.017-10.22396-33.3872-11.38399-33.55519,1.62299-4.08701-.63898-4.12601-.73102-6.22-.35199-8.088,1.52802-16.48399,5.19-25.125,2.40002-6.67599,2.44202-12.412,.11603-17.037-2.0014-3.80138-5.36377-6.70734-9.41498-8.137l-12.20001-14.734c-3.17798-3.835-7.86499-12.11-12.84497-12.079l-26.73297-.955c-.76398-.459-10.151,7.613-19.29102,11.574-9.91302,4.3-7.86798,16.036-7.84302,16.186l.02301,.14,.10901,.1,21.08301,17.759,6.65302,37.467c-.66699,1.93401-.5,3.386,.74902,4.21899-1.79303,1.326-9.76908,41.00722-8.48112,42.39722v1Z" fill="#d89326"/><path id="ai-49" d="M116.015,205.1178h0l48.29501,65.19,56.61102-15.59-2.461-14.76801-43.10803,8.16499-24.04901-36.972c-7.853-15.18-23.33099-18.237-35.28799-6.026v.00101Z" fill="#d89326"/><g><path d="M463.18614,549.78687h-22.03906c-3.84912,0-6.98047-3.13184-6.98047-6.98047-4.17786-11.3512-4.7049-21.53308,0-30.03906,0-3.84863,3.13135-6.98047,6.98047-6.98047,6.51697-4.72729,14.11517-3.29156,22.03906,0,3.84912,0,6.98047,3.13184,6.98047,6.98047-2.67426,9.62415-2.48053,19.66541,0,30.03906,0,3.84863-3.13135,6.98047-6.98047,6.98047Z" fill="#d89326"/><g><path id="aj-50" d="M461.055,519.15578h-17.79999c-.61441,0-1.11249-.49811-1.11249-1.11249s.49808-1.11249,1.11249-1.11249h17.79999c.61441,0,1.11249,.49811,1.11249,1.11249s-.49808,1.11249-1.11249,1.11249h0Z" fill="#fff"/><path id="ak-51" d="M461.055,528.05378h-17.79999c-.61441,0-1.11249-.49811-1.11249-1.11249s.49808-1.11249,1.11249-1.11249h17.79999c.61441,0,1.11249,.49811,1.11249,1.11249s-.49808,1.11249-1.11249,1.11249h0Z" fill="#fff"/><path id="al-52" d="M461.055,536.95278h-17.79999c-.61441,0-1.11249-.49811-1.11249-1.11249s.49808-1.11249,1.11249-1.11249h17.79999c.61441,0,1.11249,.49811,1.11249,1.11249s-.49808,1.11249-1.11249,1.11249h0Z" fill="#fff"/></g></g><g><path d="M123.78243,358.11525c-.59377-2.41469-.59293-4.76329-.10998-6.71342l-7.10943-22.64586,10.87477-3.06772,6.04095,23.30226c1.33228,1.50377,2.4222,3.58415,3.01597,5.99884,1.35647,5.51636-.38965,10.68798-3.90005,11.55117-3.5104,.86319-7.45575-2.9089-8.81222-8.42525h0Z" fill="#ffb6b6"/><path d="M86.60227,202.16463s-14.75719,2.05013-15.04177,14.41698c-.15486,6.72987,13.94221,44.04519,26.82568,76.66464,10.79128,27.32228,20.73111,51.35,20.73111,51.35l13.26776-5.40345-14.92414-56.96256-11.41269-43.56003-19.44596-36.50559Z" fill="#d89326"/></g></svg>